<svg xmlns="http://www.w3.org/2000/svg" viewBox="0 0 512 512"><path d="M407 0H105C47.103 0 0 47.103 0 105v302c0 57.897 47.103 105 105 105h302c57.897 0 105-47.103 105-105V105C512 47.103 464.897 0 407 0zm75 407c0 41.355-33.645 75-75 75H105c-41.355 0-75-33.645-75-75V105c0-41.355 33.645-75 75-75h302c41.355 0 75 33.645 75 75v302z"/><path d="M179 118.364V346h-35c-22.056 0-40 17.944-40 40s17.944 40 40 40h25c22.056 0 40-17.944 40-40V213.635l144-24.828V316h-35c-22.056 0-40 17.944-40 40s17.944 40 40 40h25c22.056 0 40-17.944 40-40V83.192l-204 35.172zM179 386c0 5.514-4.486 10-10 10h-25c-5.514 0-10-4.486-10-10s4.486-10 10-10h35v10zm174-30c0 5.514-4.486 10-10 10h-25c-5.514 0-10-4.486-10-10s4.486-10 10-10h35v10zm0-197.635l-144 24.828v-39.557l144-24.828v39.557z"/></svg>