<svg xmlns="http://www.w3.org/2000/svg" viewBox="0 0 445.127 445.127" width="512" height="512"><path data-original="#4DCFE0" data-old_color="#4DCFE0" d="M117.906 246.835L95.74 224.67 224.668 95.742l22.166 22.166z"/><path d="M274.286 445.127c-4.18 0-7.837-1.567-10.971-4.702L108.147 285.257c-1.567-1.567-3.135-3.657-3.657-6.269l-10.449-31.347-31.347-10.449c-2.09-.522-4.18-2.09-6.269-3.657L4.702 181.812c-6.269-6.269-6.269-16.196 0-21.943l44.408-44.408c5.224-5.224 13.584-6.269 19.853-2.09 12.539 8.359 29.78 6.792 40.751-4.18 10.971-10.449 12.539-27.69 3.657-40.751-4.18-6.269-3.135-14.629 2.09-19.853l44.408-43.886c6.269-6.269 16.196-6.269 21.943 0l51.722 51.722c1.567 1.567 3.135 3.657 3.657 6.269l10.449 31.347 31.347 10.449c2.09.522 4.18 2.09 6.269 3.657l155.167 155.167c6.269 6.269 6.269 16.196 0 21.943l-47.02 47.02c-5.747 5.747-15.151 6.269-20.898 1.045-12.539-10.449-31.347-9.927-43.363 2.09-12.016 12.016-12.539 30.302-2.09 43.363 5.224 6.269 4.702 15.151-1.045 20.898l-40.751 40.751c-3.134 3.137-6.791 4.705-10.97 4.705zm-141.584-179.2L274.286 407.51l20.898-20.898c-12.016-24.033-7.837-53.29 12.016-73.143s49.11-24.033 73.143-12.016l27.167-27.167-141.583-141.584-35.004-12.016a15.65 15.65 0 01-9.927-9.927L208.98 75.755l-38.139-38.139-25.078 25.078c9.404 23.51 4.702 51.2-14.106 68.963s-45.976 22.988-68.441 13.584l-25.078 25.078 38.139 38.139 35.004 12.016a15.652 15.652 0 019.927 9.927l11.494 35.526z" data-original="#1185E0" class="active-path" data-old_color="#1185E0"/></svg>