<svg xmlns="http://www.w3.org/2000/svg">
  <symbol id="icon-vk" viewBox="0 0 24 24">
    <path d="M12.145 19.5c3.472 0 2.234-2.198 2.502-2.83-.004-.472-.008-.926.008-1.202.22.062.739.325 1.811 1.367 1.655 1.67 2.078 2.665 3.415 2.665h2.461c.78 0 1.186-.323 1.389-.594.196-.262.388-.722.178-1.438-.549-1.724-3.751-4.701-3.95-5.015a2.84 2.84 0 01.103-.175h-.002c.632-.835 3.044-4.449 3.399-5.895a.019.019 0 00.002-.008c.192-.66.016-1.088-.166-1.33-.274-.362-.71-.545-1.299-.545h-2.461c-.824 0-1.449.415-1.765 1.172-.529 1.345-2.015 4.111-3.129 5.09a64.114 64.114 0 01.007-3.233c.036-1.535.152-3.029-1.441-3.029H9.339c-.998 0-1.953 1.09-.919 2.384.904 1.134.325 1.766.52 4.912-.76-.815-2.112-3.016-3.068-5.829-.268-.761-.674-1.466-1.817-1.466H1.594C.596 4.501 0 5.045 0 5.956 0 8.002 4.529 19.5 12.145 19.5zM4.055 6.001c.217 0 .239 0 .4.457.979 2.883 3.175 7.149 4.779 7.149 1.205 0 1.205-1.235 1.205-1.7l-.001-3.702C10.372 6.98 9.926 6.37 9.633 6l3.508.004c.002.017-.02 4.095.01 5.083 0 1.403 1.114 2.207 2.853.447 1.835-2.071 3.104-5.167 3.155-5.293.075-.18.14-.241.376-.241h2.471l-.002.009c-.225 1.05-2.446 4.396-3.189 5.435l-.034.05c-.327.534-.593 1.124.045 1.954h.001c.058.07.209.234.429.462.684.706 3.03 3.12 3.238 4.08-.138.022-.288.006-2.613.011-.495 0-.882-.74-2.359-2.23-1.328-1.292-2.19-1.82-2.975-1.82-1.524 0-1.413 1.237-1.399 2.733.005 1.622-.005 1.109.006 1.211-.089.035-.344.105-1.009.105C5.8 18 1.668 7.929 1.509 6.004c.055-.005.812-.002 2.546-.003z"/>
  </symbol>
  <symbol id="icon-instagram" viewBox="0 0 24 24">
    <path d="M4.75 24h14.5A4.756 4.756 0 0024 19.25V4.75A4.756 4.756 0 0019.25 0H4.75A4.756 4.756 0 000 4.75v14.5A4.756 4.756 0 004.75 24zM1.5 4.75A3.254 3.254 0 014.75 1.5h14.5a3.254 3.254 0 013.25 3.25v14.5a3.254 3.254 0 01-3.25 3.25H4.75a3.254 3.254 0 01-3.25-3.25z"/><path d="M12 18.13c3.38 0 6.13-2.75 6.13-6.13S15.38 5.87 12 5.87 5.87 8.62 5.87 12s2.75 6.13 6.13 6.13zm0-10.76c2.553 0 4.63 2.077 4.63 4.63s-2.077 4.63-4.63 4.63S7.37 14.553 7.37 12 9.447 7.37 12 7.37zM18.358 7.362c.986 0 1.729-.74 1.729-1.721 0-1.023-.782-1.721-1.728-1.721-.986 0-1.729.74-1.729 1.721 0 1.021.778 1.721 1.728 1.721zm.177-1.886c.316.279-.405.618-.405.166 0-.27.367-.2.405-.166z"/>
  </symbol>
  <symbol id="icon-ticket" viewBox="0 0 445.127 445.127">
    <path d="M117.906 246.835L95.74 224.67 224.668 95.742l22.166 22.166z"/><path d="M274.286 445.127c-4.18 0-7.837-1.567-10.971-4.702L108.147 285.257c-1.567-1.567-3.135-3.657-3.657-6.269l-10.449-31.347-31.347-10.449c-2.09-.522-4.18-2.09-6.269-3.657L4.702 181.812c-6.269-6.269-6.269-16.196 0-21.943l44.408-44.408c5.224-5.224 13.584-6.269 19.853-2.09 12.539 8.359 29.78 6.792 40.751-4.18 10.971-10.449 12.539-27.69 3.657-40.751-4.18-6.269-3.135-14.629 2.09-19.853l44.408-43.886c6.269-6.269 16.196-6.269 21.943 0l51.722 51.722c1.567 1.567 3.135 3.657 3.657 6.269l10.449 31.347 31.347 10.449c2.09.522 4.18 2.09 6.269 3.657l155.167 155.167c6.269 6.269 6.269 16.196 0 21.943l-47.02 47.02c-5.747 5.747-15.151 6.269-20.898 1.045-12.539-10.449-31.347-9.927-43.363 2.09-12.016 12.016-12.539 30.302-2.09 43.363 5.224 6.269 4.702 15.151-1.045 20.898l-40.751 40.751c-3.134 3.137-6.791 4.705-10.97 4.705zm-141.584-179.2L274.286 407.51l20.898-20.898c-12.016-24.033-7.837-53.29 12.016-73.143s49.11-24.033 73.143-12.016l27.167-27.167-141.583-141.584-35.004-12.016a15.65 15.65 0 01-9.927-9.927L208.98 75.755l-38.139-38.139-25.078 25.078c9.404 23.51 4.702 51.2-14.106 68.963s-45.976 22.988-68.441 13.584l-25.078 25.078 38.139 38.139 35.004 12.016a15.652 15.652 0 019.927 9.927l11.494 35.526z"/>
  </symbol>
  <symbol id="icon-ticket2" viewBox="0 0 512 512">
    <path d="M448.678 128.219l-10.607 10.608c-8.667 8.667-20.191 13.44-32.449 13.44s-23.78-4.773-32.448-13.44c-8.667-8.667-13.44-20.191-13.44-32.448s4.773-23.781 13.44-32.449l10.608-10.608L320.459 0 0 320.459l63.322 63.322 10.608-10.608c8.667-8.667 20.191-13.44 32.449-13.44s23.78 4.773 32.448 13.44c8.667 8.667 13.44 20.191 13.44 32.448s-4.773 23.781-13.44 32.449l-10.608 10.608L191.541 512 512 191.541l-63.322-63.322zM169.61 447.636c8.237-12.343 12.662-26.839 12.662-42.015 0-20.272-7.894-39.33-22.229-53.664-14.334-14.335-33.393-22.229-53.664-22.229-15.176 0-29.672 4.425-42.015 12.662l-21.932-21.931L320.459 42.432l21.931 21.932c-8.237 12.343-12.662 26.839-12.662 42.015 0 20.272 7.894 39.33 22.229 53.664 14.334 14.335 33.393 22.229 53.664 22.229 15.176 0 29.672-4.425 42.015-12.662l21.932 21.931-278.027 278.027-21.931-21.932z"/><path d="M277.741 212.96l21.216-21.216 21.3 21.3-21.215 21.217zm-42.596-42.615l21.216-21.215 21.3 21.3-21.215 21.216zm85.201 85.216l21.216-21.216 21.3 21.301-21.215 21.216z"/>
  </symbol>
  <symbol id="icon-music" viewBox="0 0 512 512">
    <path d="M407 0H105C47.103 0 0 47.103 0 105v302c0 57.897 47.103 105 105 105h302c57.897 0 105-47.103 105-105V105C512 47.103 464.897 0 407 0zm75 407c0 41.355-33.645 75-75 75H105c-41.355 0-75-33.645-75-75V105c0-41.355 33.645-75 75-75h302c41.355 0 75 33.645 75 75v302z"/><path d="M179 118.364V346h-35c-22.056 0-40 17.944-40 40s17.944 40 40 40h25c22.056 0 40-17.944 40-40V213.635l144-24.828V316h-35c-22.056 0-40 17.944-40 40s17.944 40 40 40h25c22.056 0 40-17.944 40-40V83.192l-204 35.172zM179 386c0 5.514-4.486 10-10 10h-25c-5.514 0-10-4.486-10-10s4.486-10 10-10h35v10zm174-30c0 5.514-4.486 10-10 10h-25c-5.514 0-10-4.486-10-10s4.486-10 10-10h35v10zm0-197.635l-144 24.828v-39.557l144-24.828v39.557z"/>
  </symbol>
  <symbol id="icon-youtube" viewBox="0 0 24 24">
    <path d="M9.939 7.856a.75.75 0 00-1.134.644v7c0 .585.638.939 1.134.645l5.869-3.495a.751.751 0 00.001-1.289zm.366 6.325v-4.36l3.655 2.183z"/><path d="M19.904 3.271c-4.653-.691-11.153-.691-15.808 0C2.234 3.547.767 5.009.447 6.907c-.596 3.523-.596 6.664 0 10.186.32 1.899 1.787 3.36 3.649 3.636 2.332.346 5.124.519 7.915.519 2.786 0 5.571-.172 7.894-.518 1.86-.276 3.326-1.737 3.648-3.636.596-3.523.596-6.665 0-10.188-.32-1.897-1.787-3.359-3.649-3.635zm2.17 13.573c-.213 1.256-1.173 2.222-2.39 2.402-4.518.671-10.838.671-15.368-.001-1.218-.181-2.179-1.146-2.391-2.402-.574-3.394-.574-6.291 0-9.687.213-1.256 1.173-2.22 2.392-2.402 2.262-.335 4.973-.503 7.682-.503 2.711 0 5.422.168 7.684.503 1.218.181 2.179 1.146 2.391 2.402.574 3.396.574 6.293 0 9.688z"/>
  </symbol>
</svg>
